<?xml version="1.0" encoding="utf-8"?>
<!-- Generator: Adobe Illustrator 16.0.0, SVG Export Plug-In . SVG Version: 6.00 Build 0)  -->
<!DOCTYPE svg PUBLIC "-//W3C//DTD SVG 1.0//EN" "http://www.w3.org/TR/2001/REC-SVG-20010904/DTD/svg10.dtd">
<svg version="1.0" id="Layer_1" xmlns="http://www.w3.org/2000/svg" xmlns:xlink="http://www.w3.org/1999/xlink" x="0px" y="0px"
	 width="1144.858px" height="861.394px" viewBox="0 0 1144.858 861.394" enable-background="new 0 0 1144.858 861.394"
	 xml:space="preserve">
<g>
	<line fill="none" stroke="#231F20" stroke-width="3" stroke-miterlimit="10" x1="288.965" y1="5" x2="288.965" y2="856.394"/>
	<line fill="none" stroke="#231F20" stroke-width="3" stroke-miterlimit="10" x1="572.929" y1="5" x2="572.43" y2="856.394"/>
	<line fill="none" stroke="#231F20" stroke-width="3" stroke-miterlimit="10" x1="855.896" y1="5" x2="855.896" y2="856.394"/>
</g>
<g>
	<g>
		
			<line fill="none" stroke="#231F20" stroke-width="3" stroke-miterlimit="10" x1="1134.626" y1="570.833" x2="855.771" y2="570.833"/>
		<rect x="855.771" y="288.464" fill="none" width="278.854" height="282.369"/>
	</g>
	<g>
		
			<line fill="none" stroke="#231F20" stroke-width="3" stroke-miterlimit="10" x1="1134.626" y1="287.369" x2="855.771" y2="287.369"/>
		<rect x="855.771" y="5" fill="none" width="278.854" height="282.37"/>
	</g>
	<g>
		<line fill="none" stroke="#231F20" stroke-width="3" stroke-miterlimit="10" x1="1134.626" y1="7.191" x2="855.771" y2="7.191"/>
		<rect x="855.771" y="-275.178" fill="none" width="278.854" height="282.369"/>
	</g>
</g>
<g>
	<g>
		
			<line fill="none" stroke="#231F20" stroke-width="3" stroke-miterlimit="10" x1="855.896" y1="570.929" x2="572.43" y2="570.929"/>
		<rect x="572.43" y="288.56" fill="none" width="283.466" height="282.369"/>
	</g>
	<g>
		
			<line fill="none" stroke="#231F20" stroke-width="3" stroke-miterlimit="10" x1="855.896" y1="287.465" x2="572.43" y2="287.465"/>
		<rect x="572.43" y="5.095" fill="none" width="283.466" height="282.37"/>
	</g>
	<g>
		<line fill="none" stroke="#231F20" stroke-width="3" stroke-miterlimit="10" x1="855.896" y1="7.287" x2="572.43" y2="7.287"/>
		<rect x="572.43" y="-275.082" fill="none" width="283.466" height="282.369"/>
	</g>
</g>
<g>
	<g>
		
			<line fill="none" stroke="#231F20" stroke-width="3" stroke-miterlimit="10" x1="572.43" y1="570.928" x2="288.964" y2="570.928"/>
		<rect x="288.964" y="288.559" fill="none" width="283.466" height="282.369"/>
	</g>
	<g>
		
			<line fill="none" stroke="#231F20" stroke-width="3" stroke-miterlimit="10" x1="572.43" y1="287.464" x2="288.964" y2="287.464"/>
		<rect x="288.964" y="5.094" fill="none" width="283.466" height="282.37"/>
	</g>
	<g>
		<line fill="none" stroke="#231F20" stroke-width="3" stroke-miterlimit="10" x1="572.43" y1="7.286" x2="288.964" y2="7.286"/>
		<rect x="288.964" y="-275.083" fill="none" width="283.466" height="282.369"/>
	</g>
</g>
<path fill="none" stroke="#231F20" stroke-width="10" stroke-miterlimit="10" d="M1139.858,832.576
	c0,13.155-10.153,23.817-22.678,23.817H27.677C15.153,856.394,5,845.731,5,832.576V-13.991c0-13.154,10.153-23.817,22.677-23.817
	h1089.503c12.524,0,22.678,10.664,22.678,23.817V832.576z"/>
<g>
	<g>
		<line fill="none" stroke="#231F20" stroke-width="3" stroke-miterlimit="10" x1="288.965" y1="570.928" x2="10.11" y2="570.928"/>
		<rect x="10.11" y="288.559" fill="none" width="278.854" height="282.369"/>
	</g>
	<g>
		<line fill="none" stroke="#231F20" stroke-width="3" stroke-miterlimit="10" x1="288.965" y1="287.464" x2="10.11" y2="287.464"/>
		<rect x="10.11" y="5.094" fill="none" width="278.854" height="282.37"/>
	</g>
	<g>
		<line fill="none" stroke="#231F20" stroke-width="3" stroke-miterlimit="10" x1="288.965" y1="7.286" x2="10.11" y2="7.286"/>
		<rect x="10.11" y="-275.083" fill="none" width="278.854" height="282.369"/>
	</g>
</g>
<line fill="none" stroke="#231F20" stroke-width="10" stroke-miterlimit="10" x1="5.5" y1="7.287" x2="1139.858" y2="7.287"/>
<circle fill="#231F20" cx="37.334" cy="-15.261" r="9.333"/>
<circle fill="#231F20" cx="62.834" cy="-15.261" r="9.333"/>
<circle fill="#231F20" cx="88.334" cy="-15.261" r="9.333"/>
<rect x="133" y="-37.809" fill="none" stroke="#231F20" stroke-width="10" stroke-miterlimit="10" width="6" height="45.096"/>
</svg>
